<?xml version="1.0" encoding="UTF-8" standalone="no" ?>
<!DOCTYPE svg PUBLIC "-//W3C//DTD SVG 1.1//EN" "http://www.w3.org/Graphics/SVG/1.1/DTD/svg11.dtd">
<svg xmlns="http://www.w3.org/2000/svg" xmlns:xlink="http://www.w3.org/1999/xlink" version="1.1" width="253.9208" height="201.55100000000002" xml:space="preserve">
<desc>Created with Fabric.js 1.6.0-rc.1</desc>
<defs></defs>
<g style="stroke: none; stroke-width: 1; stroke-dasharray: none; stroke-linecap: butt; stroke-linejoin: miter; stroke-miterlimit: 10; fill: none; fill-rule: nonzero; opacity: 1;" transform="translate(9.999999999999986 10) scale(4.24 7.3)" >
  <path d="m 123.917 86.69 l 12.521 21.385 l 3.542 -4.348 l -8.031 -14.031 c 0 0 -1.948 -5.44 -8.032 -3.006 z" style="stroke: none; stroke-width: 1; stroke-dasharray: none; stroke-linecap: butt; stroke-linejoin: miter; stroke-miterlimit: 10; fill: #664169; fill-rule: nonzero; opacity: 1;" transform=" matrix(1 0 0 1 -123.917 -85.330774) " stroke-linecap="round" />
  <path d="m 134.128 102.883 l 2.31 5.191 l 11.575 -13.474 c 0 0 7.788 -8.799 16.915 -8.537 c 0 0 -13.144 -3.754 -21.296 5.738 l -9.504 11.082 z" style="stroke: none; stroke-width: 1; stroke-dasharray: none; stroke-linecap: butt; stroke-linejoin: miter; stroke-miterlimit: 10; fill: #5757bd; fill-rule: nonzero; opacity: 1;" transform=" matrix(1 0 0 1 -123.917 -85.330774) " stroke-linecap="round" />
  <path d="m 137.181 109.204 c 0 0 19.96 -27.625 35.658 -21.053 c 0 0 -16.429 -0.244 -35.658 21.053 z" style="stroke: none; stroke-width: 1; stroke-dasharray: none; stroke-linecap: butt; stroke-linejoin: miter; stroke-miterlimit: 10; fill: #664169; fill-rule: nonzero; opacity: 1;" transform=" matrix(1 0 0 1 -123.917 -85.330774) " stroke-linecap="round" />
  <path d="m 148.583 102.204 c 0 0 19.666 -16.873 29.5 -10.834 c 0 0 -12.155 -1.305 -29.5 10.834 z" style="stroke: none; stroke-width: 1; stroke-dasharray: none; stroke-linecap: butt; stroke-linejoin: miter; stroke-miterlimit: 10; fill: #fc4e4e; fill-rule: nonzero; opacity: 1;" transform=" matrix(1 0 0 1 -123.917 -85.330774) " stroke-linecap="round" />
</g>
</svg>